<svg width="24" height="15" viewBox="0 0 24 15" xmlns="http://www.w3.org/2000/svg">
    <path d="m8.75 9.407.786-.787A2.787 2.787 0 0 1 13.4 4.758l.787-.787a3.845 3.845 0 0 0-2.324-.79A3.906 3.906 0 0 0 7.96 7.083c.002.84.28 1.656.79 2.324zM18.945.788 5.567 14.166l-.788-.788 1.368-1.369a14.366 14.366 0 0 1-5.59-4.224L0 7.083l.557-.702A14.423 14.423 0 0 1 11.862.95c1.559.002 3.107.258 4.583.76L18.156 0l.789.788zm4.221 5.593a14.446 14.446 0 0 0-4.504-3.735L15.53 5.779c.156.417.236.859.234 1.304a3.906 3.906 0 0 1-3.902 3.902 3.655 3.655 0 0 1-1.305-.234l-2.073 2.073c1.107.26 2.24.39 3.378.39a14.424 14.424 0 0 0 11.304-5.429l.557-.702-.557-.702zM11.472 9.837l3.143-3.144c.023.129.034.26.034.39a2.788 2.788 0 0 1-2.787 2.787c-.131 0-.262-.01-.39-.033z" fill="#AEB1B5" fill-rule="evenodd"/>
</svg>
