<svg xmlns="http://www.w3.org/2000/svg" width="379" height="57" viewBox="0 0 379 57">
    <g fill="none" fill-rule="evenodd">
        <g>
            <g>
                <g>
                    <g>
                        <path fill="#000" fill-rule="nonzero" d="M229.282 9.16l.865-3.104.916 3.105h-1.78zm-.508-5.7l-3.104 8.652h2.747l.357-1.17h2.798l.356 1.17h2.798l-3.104-8.651h-2.848zm-16.636 0v2.29h2.544v6.363h2.849V5.75h2.543V3.46h-7.936zm-14.702 0v2.29h2.544v6.363h2.849V5.75h2.543V3.46h-7.936zm-10.785 5.7l.865-3.104.916 3.105h-1.78zm-.56-5.7l-3.103 8.652h2.747l.357-1.17h2.798l.356 1.17h2.798l-3.104-8.651h-2.848zm-17.805 0v8.652h2.849V9.11h.407c.56 0 1.068 0 1.424.152.814.306.357 1.782.662 2.901h2.849v-.254c-.204 0-.306-.255-.306-.865v-.662c0-1.832-.61-1.934-1.475-2.29.814-.204 1.475-.865 1.475-2.087 0-1.272-.457-2.442-3.713-2.442h-4.172V3.46zm2.798 2.036h1.374c.61 0 1.119.306 1.119.866 0 .407-.153.865-1.272.865h-1.17v-1.73h-.05zm-15.109 3.665l.865-3.105.916 3.105h-1.781zm-.509-5.7l-3.103 8.652h2.747l.356-1.171h2.798l.356 1.17h2.798l-3.103-8.651h-2.849zm-13.888 5.801h1.272c-.153.611-.814 1.018-1.475 1.018-1.425 0-1.832-1.12-1.832-2.34 0-1.68.61-2.545 1.628-2.545.865 0 1.272.509 1.475 1.068h2.697c-.356-2.035-1.933-3.206-4.121-3.206-3.103.051-4.528 2.189-4.528 4.682 0 2.443 1.476 4.377 4.223 4.428 1.475 0 2.238-.662 2.543-1.069l.102.865h1.832V7.38h-3.918v1.883h.102zm-20.501-5.801v8.652h2.747V9.364l-.102-1.985 3.052 4.734h2.696V3.46h-2.747V6.26l.102 1.934-3.052-4.733h-2.696zm-12.363 5.7l.865-3.105.916 3.105h-1.78zm-.508-5.7l-3.103 8.652h2.747l.356-1.171h2.798l.356 1.17h2.798l-3.103-8.651h-2.85zm-20.705 0l2.136 8.652h2.798l.967-5.039 1.017 5.039h2.798l2.137-8.652h-2.696L95.64 8.855l-1.017-5.343h-2.34l-1.018 5.343-.966-5.343H87.5V3.46z" transform="translate(-561 -80) translate(561 80)"/>
                        <path fill="#005A9C" fill-rule="nonzero" d="M378.39 36.287v-.357c0-5.801-1.832-10.382-5.444-13.74-3.663-3.36-8.597-5.04-14.804-5.04-5.9 0-10.886 1.833-14.854 5.497-4.02 3.665-6.003 8.194-6.003 13.538 0 5.852 2.238 10.738 6.715 14.606 4.477 3.868 10.225 5.853 17.195 5.853 3.815 0 7.122-.662 9.97-1.985 2.85-1.323 5.393-3.359 7.58-6.158l-3.204-2.494c-2.137 2.036-4.121 3.512-6.003 4.428-1.832.916-3.714 1.374-5.698 1.374-3.612 0-6.563-1.272-8.7-3.817-2.187-2.545-3.255-6.005-3.255-10.331v-1.324h26.505v-.05zm-26.403-5.497c0-2.9.56-5.19 1.679-6.769 1.119-1.577 2.696-2.392 4.73-2.392 2.086 0 3.663.815 4.783 2.392 1.119 1.578 1.678 3.868 1.678 6.77v1.17h-12.921v-1.17h.05zm-36.12 15.828v.61c0 1.426-.152 2.393-.407 2.901-.254.51-.763.917-1.475 1.273-.204.102-.458.203-.763.356-1.272.56-1.882 1.221-1.882 2.036v1.832h21.875v-1.832c0-.713-.763-1.425-2.239-2.138-1.475-.712-2.238-1.883-2.238-3.613V.61l-17.348.814v1.629c0 .56.407 1.017 1.17 1.272.611.203 1.17.407 1.578.56.763.203 1.271.509 1.475.865.203.356.305 1.17.305 2.341v38.526h-.05zm-10.174.661c-1.476 1.578-2.9 2.749-4.324 3.461-1.425.713-3.053 1.069-4.833 1.069-3.663 0-6.512-1.323-8.547-4.072-1.984-2.697-3.001-6.514-3.001-11.501 0-4.428.864-8.041 2.543-10.79 1.68-2.748 3.816-4.173 6.308-4.173.865 0 1.578.153 2.137.407.56.306.865.611.865 1.018 0 .255-.153.865-.509 1.781-.356.917-.509 1.68-.509 2.29 0 1.273.56 2.393 1.628 3.309 1.12.916 2.493 1.374 4.172 1.374 1.882 0 3.358-.51 4.477-1.527 1.119-1.018 1.679-2.392 1.679-4.071 0-2.545-1.323-4.683-3.969-6.311-2.645-1.629-6.104-2.443-10.428-2.443-6.868 0-12.464 1.832-16.788 5.446-4.324 3.613-6.461 8.244-6.461 13.893 0 5.853 2.137 10.688 6.46 14.454 4.274 3.766 9.87 5.649 16.789 5.649 3.306 0 6.206-.56 8.597-1.629 2.391-1.068 4.63-2.799 6.613-5.19l-2.9-2.444zm-56.01-44.683c-1.374 1.323-2.087 2.951-2.087 4.885 0 1.934.662 3.512 2.035 4.835 1.374 1.323 3.053 1.985 5.037 1.985s3.713-.662 5.138-1.985c1.424-1.323 2.136-2.9 2.136-4.835 0-1.832-.712-3.46-2.187-4.835C258.28 1.272 256.6.611 254.719.611c-1.985 0-3.612.661-5.037 1.985m-5.392 15.37v1.628c0 .763.458 1.272 1.322 1.527.56.152 1.018.305 1.425.458.763.254 1.272.61 1.475 1.017.204.408.305 1.171.305 2.392V47.28c0 1.425-.152 2.392-.407 2.901-.254.51-.763.916-1.475 1.273-.203.101-.458.203-.763.356-1.272.56-1.882 1.221-1.882 2.036v1.832h21.824v-1.832c0-.713-.763-1.425-2.238-2.138-1.476-.712-2.239-1.883-2.239-3.613v-30.79l-17.347.661zm-37.646 7.684c1.272-1.069 2.645-1.934 4.12-2.494 1.476-.56 3.002-.865 4.58-.865 2.136 0 3.662.61 4.578 1.832.915 1.222 1.373 3.308 1.373 6.26V47.992c0 1.73-.56 2.952-1.73 3.664-1.17.713-1.729 1.425-1.729 2.138v1.832h20.502v-1.832c0-.815-.61-1.476-1.832-1.985-.356-.153-.61-.255-.763-.356-.763-.357-1.22-.815-1.475-1.273-.255-.458-.356-1.425-.356-2.85V32.622c0-6.31-1.018-10.484-3.002-12.57-1.984-2.087-5.545-3.105-10.632-3.105-2.696 0-5.24.357-7.631 1.018-2.391.662-4.63 1.68-6.766 3.003v-3.664l-16.127.661v1.629c0 .763.458 1.272 1.323 1.527.56.152 1.017.305 1.424.458.764.254 1.272.61 1.476 1.017.203.408.305 1.171.305 2.392V47.28c0 1.425-.153 2.392-.407 2.901-.254.51-.763.916-1.475 1.273-.204.101-.458.203-.763.356-1.272.56-1.883 1.221-1.883 2.036v1.832h20.502v-1.832c0-.764-.458-1.425-1.424-2.087-.204-.102-.357-.204-.458-.305-.61-.306-1.069-.662-1.272-1.07-.254-.406-.356-1.17-.356-2.34V25.65h-.102zm-55.146 25.294c3.968 3.715 9.005 5.598 15.059 5.598 6.053 0 11.039-1.883 15.058-5.598s6.003-8.448 6.003-14.148c0-5.751-1.984-10.484-5.901-14.149-3.969-3.664-9.005-5.496-15.11-5.496-6.155 0-11.192 1.832-15.109 5.496-3.917 3.665-5.901 8.347-5.901 14.047-.05 5.75 1.933 10.535 5.901 14.25m21.468-25.803c1.476 2.697 2.239 6.565 2.239 11.655 0 5.038-.763 8.906-2.239 11.603-1.475 2.697-3.612 4.02-6.41 4.02-2.848 0-4.985-1.373-6.46-4.07-1.476-2.698-2.188-6.668-2.188-11.859 0-4.886.763-8.652 2.29-11.349 1.526-2.697 3.662-4.02 6.41-4.02 2.746 0 4.883 1.323 6.358 4.02m-49.448-7.837l-16.126.661v1.629c0 .763.458 1.272 1.322 1.527.56.152 1.018.305 1.425.458.763.254 1.272.61 1.475 1.017.204.408.305 1.171.305 2.392V47.28c0 1.425-.152 2.392-.407 2.901-.254.51-.763.916-1.475 1.273-.203.101-.458.203-.763.356-1.272.56-1.882 1.221-1.882 2.036v1.832h21.824v-1.832c0-.815-.61-1.476-1.882-1.985-.305-.153-.56-.255-.712-.356-.763-.408-1.272-.815-1.527-1.324-.254-.458-.356-1.425-.356-2.85v-4.834c0-4.021.713-7.736 2.137-11.146 1.424-3.41 2.798-5.09 4.172-5.09.56 0 1.373.51 2.441 1.477 1.069 1.017 2.239 1.476 3.51 1.476 1.73 0 3.206-.56 4.325-1.68 1.119-1.12 1.73-2.596 1.73-4.377 0-1.883-.611-3.359-1.832-4.427-1.22-1.12-2.849-1.68-4.884-1.68-2.543 0-4.73.814-6.613 2.392-1.882 1.629-3.968 4.479-6.207 8.601V17.304zm-52.093 8.295c1.272-1.069 2.645-1.883 4.12-2.443 1.476-.56 3.002-.865 4.58-.865 2.136 0 3.662.61 4.578 1.781.915 1.222 1.373 3.308 1.373 6.26v17.66c0 1.73-.56 2.952-1.73 3.664-1.17.713-1.73 1.425-1.73 2.138v1.832h20.503v-1.832c0-.815-.61-1.476-1.832-1.985-.356-.153-.61-.255-.763-.356-.763-.357-1.22-.815-1.475-1.273-.255-.458-.356-1.425-.356-2.85V32.571c0-6.31-1.018-10.483-3.002-12.52-2.035-2.086-5.545-3.104-10.632-3.104-2.696 0-5.19.306-7.478.916-2.29.611-4.274 1.527-6.054 2.698V.61l-17.093.865v1.578c0 .712.457 1.221 1.373 1.475.56.153.967.306 1.323.408.814.254 1.322.61 1.526 1.017.203.408.305 1.171.305 2.342v38.932c0 1.426-.152 2.393-.407 2.901-.254.51-.763.917-1.475 1.273-.204.102-.458.203-.763.356-1.272.56-1.882 1.221-1.882 2.036v1.832h20.501v-1.832c0-.764-.458-1.425-1.424-2.087-.204-.102-.356-.203-.458-.305-.61-.306-1.068-.662-1.272-1.069-.254-.407-.356-1.17-.356-2.341V25.599zM46.497 43.106c-2.238 2.8-4.375 4.784-6.41 5.955-2.034 1.17-4.324 1.73-6.918 1.73-5.647 0-10.073-2.137-13.278-6.412s-4.833-10.23-4.833-17.813c0-6.514 1.374-11.705 4.07-15.522s6.41-5.7 11.04-5.7c4.324 0 8.342 3.206 12.056 9.619.153.305.305.508.407.712.458.814.967 1.374 1.526 1.68.56.305 1.272.457 2.239.457h2.035V2.953h-3.816c-.305.661-.661 1.069-.966 1.323-.306.254-.713.356-1.221.356-.407 0-2.29-.712-5.596-2.086C33.525 1.17 30.117.458 26.606.458c-7.58 0-13.888 2.545-18.924 7.685-5.037 5.14-7.58 11.553-7.58 19.186 0 8.55 2.747 15.574 8.292 21.07 5.545 5.497 12.565 8.194 21.163 8.194 4.731 0 8.852-.916 12.311-2.697 3.46-1.782 6.257-4.479 8.394-7.99l-3.765-2.8z" transform="translate(-561 -80) translate(561 80)"/>
                        <path stroke="#005A9C" d="M378.39 36.287v-.357c0-5.801-1.832-10.382-5.444-13.74-3.663-3.36-8.597-5.04-14.804-5.04-5.9 0-10.886 1.833-14.854 5.497-4.02 3.665-6.003 8.194-6.003 13.538 0 5.852 2.238 10.738 6.715 14.606 4.477 3.868 10.225 5.853 17.195 5.853 3.815 0 7.122-.662 9.97-1.985 2.85-1.323 5.393-3.359 7.58-6.158l-3.204-2.494c-2.137 2.036-4.121 3.512-6.003 4.428-1.832.916-3.714 1.374-5.698 1.374-3.612 0-6.563-1.272-8.7-3.817-2.187-2.545-3.255-6.005-3.255-10.331v-1.324h26.505v-.05zm-26.403-5.497c0-2.9.56-5.19 1.679-6.769 1.119-1.577 2.696-2.392 4.73-2.392 2.086 0 3.663.815 4.783 2.392 1.119 1.578 1.678 3.868 1.678 6.77v1.17h-12.921v-1.17h.05zm-36.12 15.828v.61c0 1.426-.152 2.393-.407 2.901-.254.51-.763.917-1.475 1.273-.204.102-.458.203-.763.356-1.272.56-1.882 1.221-1.882 2.036v1.832h21.875v-1.832c0-.713-.763-1.425-2.239-2.138-1.475-.712-2.238-1.883-2.238-3.613V.61l-17.348.814v1.629c0 .56.407 1.017 1.17 1.272.611.203 1.17.407 1.578.56.763.203 1.271.509 1.475.865.203.356.305 1.17.305 2.341v38.526h-.05zm-10.174.661c-1.476 1.578-2.9 2.749-4.324 3.461-1.425.713-3.053 1.069-4.833 1.069-3.663 0-6.512-1.323-8.547-4.072-1.984-2.697-3.001-6.514-3.001-11.501 0-4.428.864-8.041 2.543-10.79 1.68-2.748 3.816-4.173 6.308-4.173.865 0 1.578.153 2.137.407.56.306.865.611.865 1.018 0 .255-.153.865-.509 1.781-.356.917-.509 1.68-.509 2.29 0 1.273.56 2.393 1.628 3.309 1.12.916 2.493 1.374 4.172 1.374 1.882 0 3.358-.51 4.477-1.527 1.119-1.018 1.679-2.392 1.679-4.071 0-2.545-1.323-4.683-3.969-6.311-2.645-1.629-6.104-2.443-10.428-2.443-6.868 0-12.464 1.832-16.788 5.446-4.324 3.613-6.461 8.244-6.461 13.893 0 5.853 2.137 10.688 6.46 14.454 4.274 3.766 9.87 5.649 16.789 5.649 3.306 0 6.206-.56 8.597-1.629 2.391-1.068 4.63-2.799 6.613-5.19l-2.9-2.444zm-56.01-44.683c-1.374 1.323-2.087 2.951-2.087 4.885 0 1.934.662 3.512 2.035 4.835 1.374 1.323 3.053 1.985 5.037 1.985s3.713-.662 5.138-1.985c1.424-1.323 2.136-2.9 2.136-4.835 0-1.832-.712-3.46-2.187-4.835C258.28 1.272 256.6.611 254.719.611c-1.985 0-3.612.661-5.037 1.985zm-5.393 15.37v1.628c0 .763.458 1.272 1.322 1.527.56.152 1.018.305 1.425.458.763.254 1.272.61 1.475 1.017.204.408.305 1.171.305 2.392V47.28c0 1.425-.152 2.392-.407 2.901-.254.51-.763.916-1.475 1.273-.203.101-.458.203-.763.356-1.272.56-1.882 1.221-1.882 2.036v1.832h21.824v-1.832c0-.713-.763-1.425-2.238-2.138-1.476-.712-2.239-1.883-2.239-3.613v-30.79l-17.347.661zm-37.646 7.684c1.272-1.069 2.645-1.934 4.12-2.494 1.476-.56 3.002-.865 4.58-.865 2.136 0 3.662.61 4.578 1.832.915 1.222 1.373 3.308 1.373 6.26V47.992c0 1.73-.56 2.952-1.73 3.664-1.17.713-1.729 1.425-1.729 2.138v1.832h20.502v-1.832c0-.815-.61-1.476-1.832-1.985-.356-.153-.61-.255-.763-.356-.763-.357-1.22-.815-1.475-1.273-.255-.458-.356-1.425-.356-2.85V32.622c0-6.31-1.018-10.484-3.002-12.57-1.984-2.087-5.545-3.105-10.632-3.105-2.696 0-5.24.357-7.631 1.018-2.391.662-4.63 1.68-6.766 3.003v-3.664l-16.127.661v1.629c0 .763.458 1.272 1.323 1.527.56.152 1.017.305 1.424.458.764.254 1.272.61 1.476 1.017.203.408.305 1.171.305 2.392V47.28c0 1.425-.153 2.392-.407 2.901-.254.51-.763.916-1.475 1.273-.204.101-.458.203-.763.356-1.272.56-1.883 1.221-1.883 2.036v1.832h20.502v-1.832c0-.764-.458-1.425-1.424-2.087-.204-.102-.357-.204-.458-.305-.61-.306-1.069-.662-1.272-1.07-.254-.406-.356-1.17-.356-2.34V25.65h-.102zm-55.146 25.294c3.968 3.715 9.005 5.598 15.059 5.598 6.053 0 11.039-1.883 15.058-5.598s6.003-8.448 6.003-14.148c0-5.751-1.984-10.484-5.901-14.149-3.969-3.664-9.005-5.496-15.11-5.496-6.155 0-11.192 1.832-15.109 5.496-3.917 3.665-5.901 8.347-5.901 14.047-.05 5.75 1.933 10.535 5.901 14.25zm21.468-25.803c1.476 2.697 2.239 6.565 2.239 11.655 0 5.038-.763 8.906-2.239 11.603-1.475 2.697-3.612 4.02-6.41 4.02-2.848 0-4.985-1.373-6.46-4.07-1.476-2.698-2.188-6.668-2.188-11.859 0-4.886.763-8.652 2.29-11.349 1.526-2.697 3.662-4.02 6.41-4.02 2.746 0 4.883 1.323 6.358 4.02zm-49.448-7.837l-16.126.661v1.629c0 .763.458 1.272 1.322 1.527.56.152 1.018.305 1.425.458.763.254 1.272.61 1.475 1.017.204.408.305 1.171.305 2.392V47.28c0 1.425-.152 2.392-.407 2.901-.254.51-.763.916-1.475 1.273-.203.101-.458.203-.763.356-1.272.56-1.882 1.221-1.882 2.036v1.832h21.824v-1.832c0-.815-.61-1.476-1.882-1.985-.305-.153-.56-.255-.712-.356-.763-.408-1.272-.815-1.527-1.324-.254-.458-.356-1.425-.356-2.85v-4.834c0-4.021.713-7.736 2.137-11.146 1.424-3.41 2.798-5.09 4.172-5.09.56 0 1.373.51 2.441 1.477 1.069 1.017 2.239 1.476 3.51 1.476 1.73 0 3.206-.56 4.325-1.68 1.119-1.12 1.73-2.596 1.73-4.377 0-1.883-.611-3.359-1.832-4.427-1.22-1.12-2.849-1.68-4.884-1.68-2.543 0-4.73.814-6.613 2.392-1.882 1.629-3.968 4.479-6.207 8.601V17.304h0zm-52.093 8.295c1.272-1.069 2.645-1.883 4.12-2.443 1.476-.56 3.002-.865 4.58-.865 2.136 0 3.662.61 4.578 1.781.915 1.222 1.373 3.308 1.373 6.26v17.66c0 1.73-.56 2.952-1.73 3.664-1.17.713-1.73 1.425-1.73 2.138v1.832h20.503v-1.832c0-.815-.61-1.476-1.832-1.985-.356-.153-.61-.255-.763-.356-.763-.357-1.22-.815-1.475-1.273-.255-.458-.356-1.425-.356-2.85V32.571c0-6.31-1.018-10.483-3.002-12.52-2.035-2.086-5.545-3.104-10.632-3.104-2.696 0-5.19.306-7.478.916-2.29.611-4.274 1.527-6.054 2.698V.61l-17.093.865v1.578c0 .712.457 1.221 1.373 1.475.56.153.967.306 1.323.408.814.254 1.322.61 1.526 1.017.203.408.305 1.171.305 2.342v38.932c0 1.426-.152 2.393-.407 2.901-.254.51-.763.917-1.475 1.273-.204.102-.458.203-.763.356-1.272.56-1.882 1.221-1.882 2.036v1.832h20.501v-1.832c0-.764-.458-1.425-1.424-2.087-.204-.102-.356-.203-.458-.305-.61-.306-1.068-.662-1.272-1.069-.254-.407-.356-1.17-.356-2.341V25.599h0zM46.497 43.106c-2.238 2.8-4.375 4.784-6.41 5.955-2.034 1.17-4.324 1.73-6.918 1.73-5.647 0-10.073-2.137-13.278-6.412s-4.833-10.23-4.833-17.813c0-6.514 1.374-11.705 4.07-15.522s6.41-5.7 11.04-5.7c4.324 0 8.342 3.206 12.056 9.619.153.305.305.508.407.712.458.814.967 1.374 1.526 1.68.56.305 1.272.457 2.239.457h2.035V2.953h-3.816c-.305.661-.661 1.069-.966 1.323-.306.254-.713.356-1.221.356-.407 0-2.29-.712-5.596-2.086C33.525 1.17 30.117.458 26.606.458c-7.58 0-13.888 2.545-18.924 7.685-5.037 5.14-7.58 11.553-7.58 19.186 0 8.55 2.747 15.574 8.292 21.07 5.545 5.497 12.565 8.194 21.163 8.194 4.731 0 8.852-.916 12.311-2.697 3.46-1.782 6.257-4.479 8.394-7.99l-3.765-2.8z" transform="translate(-561 -80) translate(561 80)"/>
                    </g>
                </g>
            </g>
        </g>
    </g>
</svg>
